<mxfile host="65bd71144e">
    <diagram id="m15FAjSWWRU4DDeirpMy" name="Page-1">
        <mxGraphModel dx="250" dy="102" grid="1" gridSize="10" guides="1" tooltips="1" connect="1" arrows="1" fold="1" page="1" pageScale="1" pageWidth="850" pageHeight="1100" math="0" shadow="0">
            <root>
                <mxCell id="0"/>
                <mxCell id="1" parent="0"/>
                <mxCell id="ajWsT0NgcK3cRbFeN8No-3" value="" style="edgeStyle=orthogonalEdgeStyle;rounded=0;orthogonalLoop=1;jettySize=auto;html=1;" parent="1" source="ajWsT0NgcK3cRbFeN8No-1" target="ajWsT0NgcK3cRbFeN8No-2" edge="1">
                    <mxGeometry relative="1" as="geometry"/>
                </mxCell>
                <mxCell id="ajWsT0NgcK3cRbFeN8No-1" value="start" style="ellipse;whiteSpace=wrap;html=1;" parent="1" vertex="1">
                    <mxGeometry x="220" y="30" width="120" height="60" as="geometry"/>
                </mxCell>
                <mxCell id="ajWsT0NgcK3cRbFeN8No-5" style="edgeStyle=orthogonalEdgeStyle;rounded=0;orthogonalLoop=1;jettySize=auto;html=1;entryX=0.5;entryY=0;entryDx=0;entryDy=0;" parent="1" source="ajWsT0NgcK3cRbFeN8No-2" target="ajWsT0NgcK3cRbFeN8No-4" edge="1">
                    <mxGeometry relative="1" as="geometry"/>
                </mxCell>
                <mxCell id="ajWsT0NgcK3cRbFeN8No-2" value="&lt;div&gt;shortLength = 3&lt;/div&gt;&lt;div&gt;inputArray&lt;br&gt;&lt;/div&gt;&lt;div&gt;i = 0&lt;/div&gt;&lt;div&gt;count = 0&lt;/div&gt;" style="whiteSpace=wrap;html=1;" parent="1" vertex="1">
                    <mxGeometry x="200" y="120" width="160" height="80" as="geometry"/>
                </mxCell>
                <mxCell id="ajWsT0NgcK3cRbFeN8No-10" value="" style="edgeStyle=orthogonalEdgeStyle;rounded=0;orthogonalLoop=1;jettySize=auto;html=1;" parent="1" source="ajWsT0NgcK3cRbFeN8No-4" target="ajWsT0NgcK3cRbFeN8No-9" edge="1">
                    <mxGeometry relative="1" as="geometry"/>
                </mxCell>
                <mxCell id="ajWsT0NgcK3cRbFeN8No-16" style="edgeStyle=orthogonalEdgeStyle;rounded=0;orthogonalLoop=1;jettySize=auto;html=1;exitX=1;exitY=0.5;exitDx=0;exitDy=0;entryX=0.5;entryY=0;entryDx=0;entryDy=0;" parent="1" source="ajWsT0NgcK3cRbFeN8No-4" target="ajWsT0NgcK3cRbFeN8No-24" edge="1">
                    <mxGeometry relative="1" as="geometry">
                        <mxPoint x="279.6" y="730.72" as="targetPoint"/>
                        <Array as="points">
                            <mxPoint x="460" y="280"/>
                            <mxPoint x="460" y="670"/>
                            <mxPoint x="280" y="670"/>
                        </Array>
                    </mxGeometry>
                </mxCell>
                <mxCell id="ajWsT0NgcK3cRbFeN8No-4" value="i = 0 ... inputArray.Length" style="shape=hexagon;perimeter=hexagonPerimeter2;whiteSpace=wrap;html=1;fixedSize=1;" parent="1" vertex="1">
                    <mxGeometry x="160" y="240" width="240" height="80" as="geometry"/>
                </mxCell>
                <mxCell id="ajWsT0NgcK3cRbFeN8No-12" value="yes" style="edgeStyle=orthogonalEdgeStyle;rounded=0;orthogonalLoop=1;jettySize=auto;html=1;" parent="1" source="ajWsT0NgcK3cRbFeN8No-9" target="ajWsT0NgcK3cRbFeN8No-11" edge="1">
                    <mxGeometry x="-0.0005" y="-20" relative="1" as="geometry">
                        <mxPoint x="300" y="510" as="targetPoint"/>
                        <mxPoint x="40" as="offset"/>
                    </mxGeometry>
                </mxCell>
                <mxCell id="ajWsT0NgcK3cRbFeN8No-14" value="no" style="edgeStyle=orthogonalEdgeStyle;rounded=0;orthogonalLoop=1;jettySize=auto;html=1;" parent="1" source="ajWsT0NgcK3cRbFeN8No-9" edge="1">
                    <mxGeometry x="-0.4923" y="-20" relative="1" as="geometry">
                        <mxPoint x="160" y="280" as="targetPoint"/>
                        <Array as="points">
                            <mxPoint x="100" y="425"/>
                            <mxPoint x="100" y="280"/>
                        </Array>
                        <mxPoint as="offset"/>
                    </mxGeometry>
                </mxCell>
                <mxCell id="ajWsT0NgcK3cRbFeN8No-9" value="inputArray[i].Length &amp;lt;= shortLength" style="rhombus;whiteSpace=wrap;html=1;" parent="1" vertex="1">
                    <mxGeometry x="136.25" y="370" width="287.5" height="110" as="geometry"/>
                </mxCell>
                <mxCell id="ajWsT0NgcK3cRbFeN8No-13" style="edgeStyle=orthogonalEdgeStyle;rounded=0;orthogonalLoop=1;jettySize=auto;html=1;entryX=0;entryY=0.5;entryDx=0;entryDy=0;" parent="1" source="ajWsT0NgcK3cRbFeN8No-11" target="ajWsT0NgcK3cRbFeN8No-4" edge="1">
                    <mxGeometry relative="1" as="geometry">
                        <Array as="points">
                            <mxPoint x="80" y="578"/>
                            <mxPoint x="80" y="280"/>
                        </Array>
                    </mxGeometry>
                </mxCell>
                <mxCell id="ajWsT0NgcK3cRbFeN8No-11" value="count = count + 1" style="whiteSpace=wrap;html=1;" parent="1" vertex="1">
                    <mxGeometry x="215" y="540" width="130" height="75" as="geometry"/>
                </mxCell>
                <mxCell id="ajWsT0NgcK3cRbFeN8No-15" value="inputArray и shortLength могут быть введены пользователем" style="text;html=1;strokeColor=none;fillColor=none;align=center;verticalAlign=middle;whiteSpace=wrap;rounded=0;" parent="1" vertex="1">
                    <mxGeometry x="420" y="90" width="230" height="90" as="geometry"/>
                </mxCell>
                <mxCell id="ajWsT0NgcK3cRbFeN8No-23" style="edgeStyle=orthogonalEdgeStyle;rounded=0;orthogonalLoop=1;jettySize=auto;html=1;" parent="1" target="ajWsT0NgcK3cRbFeN8No-22" edge="1">
                    <mxGeometry relative="1" as="geometry">
                        <mxPoint x="280" y="910" as="sourcePoint"/>
                    </mxGeometry>
                </mxCell>
                <mxCell id="ajWsT0NgcK3cRbFeN8No-29" value="yes" style="edgeStyle=orthogonalEdgeStyle;rounded=0;orthogonalLoop=1;jettySize=auto;html=1;" parent="1" source="ajWsT0NgcK3cRbFeN8No-22" target="ajWsT0NgcK3cRbFeN8No-28" edge="1">
                    <mxGeometry x="0.2002" y="20" relative="1" as="geometry">
                        <mxPoint as="offset"/>
                    </mxGeometry>
                </mxCell>
                <mxCell id="ajWsT0NgcK3cRbFeN8No-30" value="no" style="edgeStyle=orthogonalEdgeStyle;rounded=0;orthogonalLoop=1;jettySize=auto;html=1;exitX=0;exitY=0.5;exitDx=0;exitDy=0;entryX=0;entryY=0.5;entryDx=0;entryDy=0;" parent="1" source="ajWsT0NgcK3cRbFeN8No-22" target="ajWsT0NgcK3cRbFeN8No-27" edge="1">
                    <mxGeometry x="-0.1314" y="-14" relative="1" as="geometry">
                        <mxPoint as="offset"/>
                    </mxGeometry>
                </mxCell>
                <mxCell id="ajWsT0NgcK3cRbFeN8No-22" value="inputArray[i].Length &amp;lt;= shortLength" style="rhombus;whiteSpace=wrap;html=1;" parent="1" vertex="1">
                    <mxGeometry x="136.25" y="970" width="287.5" height="110" as="geometry"/>
                </mxCell>
                <mxCell id="ajWsT0NgcK3cRbFeN8No-26" style="edgeStyle=orthogonalEdgeStyle;rounded=0;orthogonalLoop=1;jettySize=auto;html=1;entryX=0.5;entryY=0;entryDx=0;entryDy=0;" parent="1" source="ajWsT0NgcK3cRbFeN8No-24" target="ajWsT0NgcK3cRbFeN8No-27" edge="1">
                    <mxGeometry relative="1" as="geometry">
                        <mxPoint x="280" y="830" as="targetPoint"/>
                    </mxGeometry>
                </mxCell>
                <mxCell id="ajWsT0NgcK3cRbFeN8No-24" value="&lt;div&gt;outputArray&lt;br&gt;&lt;/div&gt;&lt;div&gt;outputArray.Length = count&lt;/div&gt;&lt;div&gt;j = 0&lt;br&gt;&lt;/div&gt;" style="rounded=0;whiteSpace=wrap;html=1;" parent="1" vertex="1">
                    <mxGeometry x="190" y="730" width="180" height="60" as="geometry"/>
                </mxCell>
                <mxCell id="ajWsT0NgcK3cRbFeN8No-32" style="edgeStyle=orthogonalEdgeStyle;rounded=0;orthogonalLoop=1;jettySize=auto;html=1;exitX=1;exitY=0.5;exitDx=0;exitDy=0;" parent="1" source="ajWsT0NgcK3cRbFeN8No-27" edge="1">
                    <mxGeometry relative="1" as="geometry">
                        <mxPoint x="280" y="1280" as="targetPoint"/>
                        <Array as="points">
                            <mxPoint x="440" y="870"/>
                            <mxPoint x="440" y="1230"/>
                            <mxPoint x="280" y="1230"/>
                            <mxPoint x="280" y="1280"/>
                        </Array>
                    </mxGeometry>
                </mxCell>
                <mxCell id="ajWsT0NgcK3cRbFeN8No-27" value="i = 0 ... inputArray.Length" style="shape=hexagon;perimeter=hexagonPerimeter2;whiteSpace=wrap;html=1;fixedSize=1;" parent="1" vertex="1">
                    <mxGeometry x="160" y="830" width="240" height="80" as="geometry"/>
                </mxCell>
                <mxCell id="ajWsT0NgcK3cRbFeN8No-31" style="edgeStyle=orthogonalEdgeStyle;rounded=0;orthogonalLoop=1;jettySize=auto;html=1;entryX=0;entryY=0.5;entryDx=0;entryDy=0;" parent="1" source="ajWsT0NgcK3cRbFeN8No-28" target="ajWsT0NgcK3cRbFeN8No-27" edge="1">
                    <mxGeometry relative="1" as="geometry">
                        <Array as="points">
                            <mxPoint x="80" y="1170"/>
                            <mxPoint x="80" y="870"/>
                        </Array>
                    </mxGeometry>
                </mxCell>
                <mxCell id="ajWsT0NgcK3cRbFeN8No-28" value="&lt;div&gt;outputArray[j] = inputArray[i]&lt;/div&gt;&lt;div&gt;j = j + 1&lt;br&gt;&lt;/div&gt;" style="whiteSpace=wrap;html=1;" parent="1" vertex="1">
                    <mxGeometry x="170" y="1140" width="220" height="60" as="geometry"/>
                </mxCell>
                <mxCell id="ajWsT0NgcK3cRbFeN8No-35" value="" style="edgeStyle=orthogonalEdgeStyle;rounded=0;orthogonalLoop=1;jettySize=auto;html=1;exitX=0.433;exitY=0.9;exitDx=0;exitDy=0;exitPerimeter=0;" parent="1" source="ajWsT0NgcK3cRbFeN8No-33" target="ajWsT0NgcK3cRbFeN8No-34" edge="1">
                    <mxGeometry relative="1" as="geometry">
                        <Array as="points">
                            <mxPoint x="280" y="1352"/>
                        </Array>
                    </mxGeometry>
                </mxCell>
                <mxCell id="ajWsT0NgcK3cRbFeN8No-33" value="outputArray" style="shape=document;whiteSpace=wrap;html=1;boundedLbl=1;" parent="1" vertex="1">
                    <mxGeometry x="225" y="1280" width="120" height="80" as="geometry"/>
                </mxCell>
                <mxCell id="ajWsT0NgcK3cRbFeN8No-34" value="finish" style="ellipse;whiteSpace=wrap;html=1;" parent="1" vertex="1">
                    <mxGeometry x="220" y="1390" width="120" height="60" as="geometry"/>
                </mxCell>
            </root>
        </mxGraphModel>
    </diagram>
</mxfile>